<svg xmlns="http://www.w3.org/2000/svg" xmlns:xlink="http://www.w3.org/1999/xlink" width="512" height="512" viewBox="0 0 2250 2250" preserveAspectRatio="xMidYMid meet" version="1.0"><defs><g/><clipPath id="6931cbdbbd"><path d="M 199 302 L 1469 302 L 1469 1942 L 199 1942 Z M 199 302 " clip-rule="nonzero"/></clipPath><clipPath id="a48450925f"><path d="M 199.511719 376.511719 L 1369.667969 302.933594 L 1468.050781 1867.558594 L 297.898438 1941.136719 Z M 199.511719 376.511719 " clip-rule="nonzero"/></clipPath><clipPath id="7ced6ff6ee"><path d="M 0.304688 0.933594 L 1269 0.933594 L 1269 1638 L 0.304688 1638 Z M 0.304688 0.933594 " clip-rule="nonzero"/></clipPath><clipPath id="c508ecd47c"><path d="M 0.511719 74.511719 L 1170.667969 0.933594 L 1269.050781 1565.558594 L 98.898438 1639.136719 Z M 0.511719 74.511719 " clip-rule="nonzero"/></clipPath><clipPath id="7ecd0d2371"><rect x="0" width="1270" y="0" height="1640"/></clipPath><clipPath id="f69455f0cd"><path d="M 199 303 L 1467 303 L 1467 1941 L 199 1941 Z M 199 303 " clip-rule="nonzero"/></clipPath><clipPath id="6b4af88949"><path d="M 199.511719 376.511719 L 1368.222656 303.023438 L 1466.546875 1866.730469 L 297.839844 1940.21875 Z M 199.511719 376.511719 " clip-rule="nonzero"/></clipPath><clipPath id="d4e322a9c3"><path d="M 199.515625 376.527344 L 1369.621094 302.953125 L 1468.003906 1867.515625 L 297.894531 1941.09375 Z M 199.515625 376.527344 " clip-rule="nonzero"/></clipPath><clipPath id="4eac44debf"><rect x="0" width="1684" y="0" height="2183"/></clipPath><clipPath id="75ec7941b6"><path d="M 878 60 L 1977 60 L 1977 560 L 878 560 Z M 878 60 " clip-rule="nonzero"/></clipPath><clipPath id="f6c60bca9d"><path d="M 936.980469 60.515625 L 1976.160156 266.75 L 1917.972656 559.941406 L 878.796875 353.710938 Z M 936.980469 60.515625 " clip-rule="nonzero"/></clipPath><clipPath id="d9e5a1592a"><path d="M 0.75 0.453125 L 1098 0.453125 L 1098 500 L 0.75 500 Z M 0.75 0.453125 " clip-rule="nonzero"/></clipPath><clipPath id="733f675c84"><path d="M 58.980469 0.515625 L 1098.160156 206.75 L 1039.972656 499.941406 L 0.796875 293.710938 Z M 58.980469 0.515625 " clip-rule="nonzero"/></clipPath><clipPath id="c295b95676"><rect x="0" width="1099" y="0" height="500"/></clipPath><clipPath id="f113208884"><path d="M 273 1622 L 1375 1622 L 1375 2213 L 273 2213 Z M 273 1622 " clip-rule="nonzero"/></clipPath><clipPath id="9a14d8a31c"><path d="M 359.484375 1622.4375 L 1374.507812 1926.003906 L 1288.863281 2212.378906 L 273.839844 1908.816406 Z M 359.484375 1622.4375 " clip-rule="nonzero"/></clipPath><clipPath id="f26f66ff48"><path d="M 0.738281 0.398438 L 1101.609375 0.398438 L 1101.609375 590.535156 L 0.738281 590.535156 Z M 0.738281 0.398438 " clip-rule="nonzero"/></clipPath><clipPath id="e36a77f541"><path d="M 86.484375 0.4375 L 1101.507812 304.003906 L 1015.863281 590.378906 L 0.839844 286.816406 Z M 86.484375 0.4375 " clip-rule="nonzero"/></clipPath><clipPath id="73b9f9959a"><rect x="0" width="1102" y="0" height="591"/></clipPath></defs><g transform="matrix(1, 0, 0, 1, 334, 31)"><g clip-path="url(#4eac44debf)"><g clip-path="url(#6931cbdbbd)"><g clip-path="url(#a48450925f)"><g transform="matrix(1, 0, 0, 1, 199, 302)"><g clip-path="url(#7ecd0d2371)"><g clip-path="url(#7ced6ff6ee)"><g clip-path="url(#c508ecd47c)"><path fill="#ffffff" d="M 0.511719 74.511719 L 1170.667969 0.933594 L 1268.964844 1564.183594 L 98.8125 1637.765625 Z M 0.511719 74.511719 " fill-opacity="1" fill-rule="nonzero"/></g></g></g></g></g></g><g clip-path="url(#f69455f0cd)"><g clip-path="url(#6b4af88949)"><g clip-path="url(#d4e322a9c3)"><path stroke-linecap="butt" transform="matrix(4.072159, -0.256059, 0.256059, 4.072159, 199.512741, 376.511673)" fill="none" stroke-linejoin="miter" d="M 0.000464521 0.00387755 L 287.344188 0.00454786 L 287.343839 384.214147 L 0.0000552054 384.214433 Z M 0.000464521 0.00387755 " stroke="#000000" stroke-width="22.047937" stroke-opacity="1" stroke-miterlimit="4"/></g></g></g><g fill="#000000" fill-opacity="1"><g transform="translate(422.641713, 1772.14111)"><g><path d="M 384.953125 -24.203125 C 305.054688 -19.179688 244.625 -18.722656 203.65625 -22.828125 C 162.6875 -26.929688 131.976562 -36.847656 111.53125 -52.578125 C 91.101562 -68.304688 75.34375 -91.925781 64.25 -123.4375 C 53.15625 -154.957031 45.929688 -197.347656 42.578125 -250.609375 L -18.03125 -1214.8125 L 307 -1235.25 L 360.1875 -389.078125 C 364.832031 -315.234375 389.550781 -279.71875 434.34375 -282.53125 C 480.34375 -285.425781 501.019531 -323.796875 496.375 -397.640625 L 443.1875 -1243.8125 L 768.21875 -1264.234375 L 828.828125 -300.03125 C 832.179688 -246.769531 830.328125 -203.8125 823.265625 -171.15625 C 816.203125 -138.507812 803.519531 -113.101562 785.21875 -94.9375 C 766.914062 -76.769531 737.390625 -63.0625 696.640625 -53.8125 C 655.898438 -44.570312 596.191406 -37.476562 517.515625 -32.53125 Z M 384.953125 -24.203125 "/></g></g></g></g></g><g clip-path="url(#75ec7941b6)"><g clip-path="url(#f6c60bca9d)"><g transform="matrix(1, 0, 0, 1, 878, 60)"><g clip-path="url(#c295b95676)"><g clip-path="url(#d9e5a1592a)"><g clip-path="url(#733f675c84)"><path fill="#ffb800" d="M 58.980469 0.515625 L 1097.753906 206.667969 L 1039.566406 499.859375 L 0.796875 293.710938 Z M 58.980469 0.515625 " fill-opacity="1" fill-rule="nonzero"/></g></g></g></g></g></g><g clip-path="url(#f113208884)"><g clip-path="url(#9a14d8a31c)"><g transform="matrix(1, 0, 0, 1, 273, 1622)"><g clip-path="url(#73b9f9959a)"><g clip-path="url(#f26f66ff48)"><g clip-path="url(#e36a77f541)"><path fill="#ffb800" d="M 86.484375 0.4375 L 1101.113281 303.882812 L 1015.464844 590.261719 L 0.839844 286.816406 Z M 86.484375 0.4375 " fill-opacity="1" fill-rule="nonzero"/></g></g></g></g></g></g></svg>