<svg xmlns="http://www.w3.org/2000/svg" xmlns:xlink="http://www.w3.org/1999/xlink" width="512" height="512" viewBox="0 0 2250 2250" preserveAspectRatio="xMidYMid meet" version="1.0"><defs><g/><clipPath id="c407309b68"><path d="M 244 152 L 1808 152 L 1808 2171 L 244 2171 Z M 244 152 " clip-rule="nonzero"/></clipPath><clipPath id="28bf0c27aa"><path d="M 244.988281 242.785156 L 1686.429688 152.144531 L 1807.621094 2079.511719 L 366.179688 2170.148438 Z M 244.988281 242.785156 " clip-rule="nonzero"/></clipPath><clipPath id="93ddf99174"><path d="M 0.945312 0.09375 L 1563.851562 0.09375 L 1563.851562 2017 L 0.945312 2017 Z M 0.945312 0.09375 " clip-rule="nonzero"/></clipPath><clipPath id="6b53058e36"><path d="M 0.988281 90.785156 L 1442.429688 0.144531 L 1563.621094 1927.511719 L 122.179688 2018.148438 Z M 0.988281 90.785156 " clip-rule="nonzero"/></clipPath><clipPath id="71ac162e6c"><rect x="0" width="1564" y="0" height="2019"/></clipPath><clipPath id="197cb1e871"><path d="M 244 152 L 1806 152 L 1806 2170 L 244 2170 Z M 244 152 " clip-rule="nonzero"/></clipPath><clipPath id="e8d1d36183"><path d="M 244.988281 242.785156 L 1684.648438 152.257812 L 1805.769531 2078.492188 L 366.109375 2169.019531 Z M 244.988281 242.785156 " clip-rule="nonzero"/></clipPath><clipPath id="f20a77c5ac"><path d="M 244.988281 242.804688 L 1686.375 152.171875 L 1807.5625 2079.460938 L 366.179688 2170.09375 Z M 244.988281 242.804688 " clip-rule="nonzero"/></clipPath><clipPath id="6542dc749b"><rect x="0" width="2029" y="0" height="2249"/></clipPath><clipPath id="0ca72fddf2"><path d="M 703 29 L 2162 29 L 2162 694 L 703 694 Z M 703 29 " clip-rule="nonzero"/></clipPath><clipPath id="9c370bc2c6"><path d="M 780.34375 29.429688 L 2161.378906 303.507812 L 2084.050781 693.152344 L 703.015625 419.074219 Z M 780.34375 29.429688 " clip-rule="nonzero"/></clipPath><clipPath id="e144a0cd63"><path d="M 0 0.265625 L 1458 0.265625 L 1458 664.292969 L 0 664.292969 Z M 0 0.265625 " clip-rule="nonzero"/></clipPath><clipPath id="6f39be59b4"><path d="M 77.34375 0.429688 L 1458.378906 274.507812 L 1381.050781 664.152344 L 0.015625 390.074219 Z M 77.34375 0.429688 " clip-rule="nonzero"/></clipPath><clipPath id="e7c356ebfa"><rect x="0" width="1459" y="0" height="665"/></clipPath><clipPath id="c1be02b983"><path d="M 0.5 1449 L 1493 1449 L 1493 2249 L 0.5 2249 Z M 0.5 1449 " clip-rule="nonzero"/></clipPath><clipPath id="64a73fb266"><path d="M 116.589844 1449.351562 L 1492.425781 1860.824219 L 1376.335938 2249 L 0.5 1837.53125 Z M 116.589844 1449.351562 " clip-rule="nonzero"/></clipPath><clipPath id="e968919e63"><path d="M 0.5 0.195312 L 1492 0.195312 L 1492 800 L 0.5 800 Z M 0.5 0.195312 " clip-rule="nonzero"/></clipPath><clipPath id="052a03c4ba"><path d="M 116.589844 0.351562 L 1492.425781 411.824219 L 1376.335938 800 L 0.5 388.53125 Z M 116.589844 0.351562 " clip-rule="nonzero"/></clipPath><clipPath id="a6283e0c12"><rect x="0" width="1493" y="0" height="800"/></clipPath></defs><g transform="matrix(1, 0, 0, 1, 101, -0.00000000000012564)"><g clip-path="url(#6542dc749b)"><g clip-path="url(#c407309b68)"><g clip-path="url(#28bf0c27aa)"><g transform="matrix(1, 0, 0, 1, 244, 152)"><g clip-path="url(#71ac162e6c)"><g clip-path="url(#93ddf99174)"><g clip-path="url(#6b53058e36)"><path fill="#ffffff" d="M 0.988281 90.785156 L 1442.429688 0.144531 L 1563.515625 1925.820312 L 122.074219 2016.457031 Z M 0.988281 90.785156 " fill-opacity="1" fill-rule="nonzero"/></g></g></g></g></g></g><g clip-path="url(#197cb1e871)"><g clip-path="url(#e8d1d36183)"><g clip-path="url(#f20a77c5ac)"><path stroke-linecap="butt" transform="matrix(5.016237, -0.315423, 0.315423, 5.016237, 244.987753, 242.784156)" fill="none" stroke-linejoin="miter" d="M -0.000151556 0.00408352 L 287.344065 0.00451906 L 287.343817 384.214661 L 0.000375774 384.214275 Z M -0.000151556 0.00408352 " stroke="#000000" stroke-width="17.898415" stroke-opacity="1" stroke-miterlimit="4"/></g></g></g><g fill="#000000" fill-opacity="1"><g transform="translate(519.846365, 1961.972673)"><g><path d="M 474.203125 -29.8125 C 375.773438 -23.625 301.328125 -23.0625 250.859375 -28.125 C 200.398438 -33.1875 162.582031 -45.40625 137.40625 -64.78125 C 112.238281 -84.15625 92.816406 -113.25 79.140625 -152.0625 C 65.472656 -190.882812 56.578125 -243.097656 52.453125 -308.703125 L -22.21875 -1496.453125 L 378.171875 -1521.625 L 443.703125 -479.28125 C 449.421875 -388.3125 479.863281 -344.5625 535.03125 -348.03125 C 591.707031 -351.59375 617.1875 -398.859375 611.46875 -489.828125 L 545.9375 -1532.171875 L 946.328125 -1557.34375 L 1021 -369.59375 C 1025.125 -303.988281 1022.832031 -251.070312 1014.125 -210.84375 C 1005.425781 -170.625 989.804688 -139.328125 967.265625 -116.953125 C 944.710938 -94.578125 908.34375 -77.691406 858.15625 -66.296875 C 807.96875 -54.910156 734.414062 -46.171875 637.5 -40.078125 Z M 474.203125 -29.8125 "/></g></g></g></g></g><g clip-path="url(#0ca72fddf2)"><g clip-path="url(#9c370bc2c6)"><g transform="matrix(1, 0, 0, 1, 703, 29)"><g clip-path="url(#e7c356ebfa)"><g clip-path="url(#e144a0cd63)"><g clip-path="url(#6f39be59b4)"><path fill="#ffb800" d="M 77.34375 0.429688 L 1457.839844 274.398438 L 1380.511719 664.042969 L 0.015625 390.074219 Z M 77.34375 0.429688 " fill-opacity="1" fill-rule="nonzero"/></g></g></g></g></g></g><g clip-path="url(#c1be02b983)"><g clip-path="url(#64a73fb266)"><g transform="matrix(1, 0, 0, 1, 0.000000000000000056, 1449)"><g clip-path="url(#a6283e0c12)"><g clip-path="url(#e968919e63)"><g clip-path="url(#052a03c4ba)"><path fill="#ffb800" d="M 116.589844 0.351562 L 1491.890625 411.664062 L 1375.796875 799.839844 L 0.5 388.53125 Z M 116.589844 0.351562 " fill-opacity="1" fill-rule="nonzero"/></g></g></g></g></g></g></svg>